<svg xmlns="http://www.w3.org/2000/svg" version="1.1" xmlns:xlink="http://www.w3.org/1999/xlink" viewBox="0 0 200 200"><rect width="200" height="200" fill="url('#gradient')"></rect><defs><linearGradient id="gradient" gradientTransform="rotate(178 0.5 0.5)"><stop offset="0%" stop-color="#e3af29"></stop><stop offset="100%" stop-color="#db3d08"></stop></linearGradient></defs><g><g fill="#000000" transform="matrix(4.793758127438231,0,0,4.793758127438231,4.864238396701651,134.06402475880395)" stroke="#7d836e" stroke-width="0"><path d="M6.85 0L1.07 0L1.07-14.22L6.18-14.22Q8.93-14.22 10.36-13.21Q11.79-12.21 11.79-10.29L11.79-10.29Q11.79-9.19 11.28-8.41Q10.77-7.63 9.79-7.26L9.79-7.26Q10.90-6.96 11.49-6.16Q12.09-5.36 12.09-4.21L12.09-4.21Q12.09-2.12 10.77-1.07Q9.44-0.02 6.85 0L6.85 0ZM6.90-6.04L4.50-6.04L4.50-2.64L6.75-2.64Q7.68-2.64 8.17-3.06Q8.67-3.49 8.67-4.26L8.67-4.26Q8.67-6.04 6.90-6.04L6.90-6.04ZM4.50-11.57L4.50-8.29L6.29-8.29Q7.41-8.30 7.89-8.70Q8.37-9.10 8.37-9.88L8.37-9.88Q8.37-10.78 7.85-11.18Q7.33-11.57 6.18-11.57L6.18-11.57L4.50-11.57ZM15.91-7.47L15.94-7.49Q15.36-8.31 15.03-9.05Q14.71-9.79 14.71-10.59L14.71-10.59Q14.71-12.30 15.82-13.36Q16.93-14.42 18.73-14.42L18.73-14.42Q20.34-14.42 21.40-13.44Q22.45-12.46 22.45-11.01L22.45-11.01Q22.45-9.19 20.45-7.78L20.45-7.78L19.71-7.27L21.89-4.76Q22.43-5.83 22.43-7.11L22.43-7.11L25.20-7.11Q25.20-4.23 23.87-2.49L23.87-2.49L26.04 0L22.36 0L21.70-0.75Q20.88-0.26 20.02-0.03Q19.17 0.21 18.10 0.21L18.10 0.21Q15.99 0.21 14.72-0.90Q13.45-2.01 13.45-3.82L13.45-3.82Q13.45-4.80 13.95-5.61Q14.45-6.41 15.91-7.47L15.91-7.47ZM18.31-2.33L18.31-2.33Q19.17-2.33 19.95-2.73L19.95-2.73L17.39-5.64L17.30-5.59Q16.75-4.90 16.75-4.04L16.75-4.04Q16.75-3.33 17.20-2.83Q17.65-2.33 18.31-2.33ZM17.55-10.63L17.55-10.63Q17.55-9.94 18.29-8.96L18.29-8.96L18.95-9.38Q19.39-9.67 19.60-9.98Q19.80-10.29 19.80-10.77L19.80-10.77Q19.80-11.22 19.49-11.55Q19.18-11.88 18.72-11.88L18.72-11.88Q18.17-11.88 17.86-11.54Q17.55-11.19 17.55-10.63ZM32.13 0L27.45 0L27.45-14.22L32.03-14.22Q33.92-14.22 35.42-13.36Q36.92-12.51 37.77-10.95Q38.61-9.39 38.62-7.46L38.62-7.46L38.62-6.81Q38.62-4.85 37.80-3.31Q36.97-1.76 35.47-0.88Q33.97-0.01 32.13 0L32.13 0ZM32.03-11.57L30.88-11.57L30.88-2.64L32.07-2.64Q33.54-2.64 34.34-3.69Q35.13-4.74 35.13-6.81L35.13-6.81L35.13-7.42Q35.13-9.48 34.34-10.53Q33.54-11.57 32.03-11.57L32.03-11.57Z"></path></g></g></svg>